# xmcd
#
# Track frame offsets: 
#        150
#        13192
#        41819
#        53307
#        66149
#        78301
#        90313
#        102912
#        116133
#        132944
#        144173
#        158280
#        169980
#        182101
#        193159
#        207094
#        218930
#        226808
#
# Disc length: 3189 seconds
#
# Revision: 10
# Processed by: cddbd v1.5.2PL0 Copyright (c) Steve Scherf et al.
# Submitted via: ExactAudioCopy v1.1
#
DISCID=ec0c7312
DTITLE=Stevie Wonder - Early Classics
DYEAR=2000
DGENRE=R&B
TTITLE0=Uptight (Everything's Alright) (stereo)
TTITLE1=Fingertips (Parts 1 and 2) (live) (mono)
TTITLE2=Stevie Wonder and Clarence Paul - Little Water Boy (mono)
TTITLE3=Music Talk (stereo)
TTITLE4=Work Out Stevie, Work Out (stereo)
TTITLE5=Monkey Talk (mono)
TTITLE6=Frankie and Johnny (stereo)
TTITLE7=Mary Ann (stereo)
TTITLE8=Blowin' In The Wind (Lp version) (stereo)
TTITLE9=Sad Boy (stereo)
TTITLE10=With A Child's Heart (stereo)
TTITLE11=I Was Made To Love Her (stereo)
TTITLE12=Ain't That Love (stereo)
TTITLE13=My Baby's Gone (stereo)
TTITLE14=Yester-Me, Yester-You, Yesterday (stereo)
TTITLE15=Teach Me Tonight (stereo)
TTITLE16=Ebb Tide (inst) (mono)
TTITLE17=Beyond The Sea (mono)
EXTD=
EXTT0=
EXTT1=
EXTT2=
EXTT3=
EXTT4=
EXTT5=
EXTT6=
EXTT7=
EXTT8=
EXTT9=
EXTT10=
EXTT11=
EXTT12=
EXTT13=
EXTT14=
EXTT15=
EXTT16=
EXTT17=
PLAYORDER=
